<?xml version="1.0" standalone="no"?><svg xmlns="http://www.w3.org/2000/svg" viewBox="0 0 1440 320"><path fill="#85cb33" fill-opacity="0.7" d="M0,192L26.7,176C53.3,160,107,128,160,117.3C213.3,107,267,117,320,133.3C373.3,149,427,171,480,176C533.3,181,587,171,640,144C693.3,117,747,75,800,64C853.3,53,907,75,960,106.7C1013.3,139,1067,181,1120,186.7C1173.3,192,1227,160,1280,133.3C1333.3,107,1387,85,1413,74.7L1440,64L1440,320L1413.3,320C1386.7,320,1333,320,1280,320C1226.7,320,1173,320,1120,320C1066.7,320,1013,320,960,320C906.7,320,853,320,800,320C746.7,320,693,320,640,320C586.7,320,533,320,480,320C426.7,320,373,320,320,320C266.7,320,213,320,160,320C106.7,320,53,320,27,320L0,320Z"></path></svg>